<mxfile host="app.diagrams.net" modified="2022-07-15T08:17:59.175Z" agent="5.0 (Windows NT 10.0; Win64; x64) AppleWebKit/537.36 (KHTML, like Gecko) Chrome/103.0.0.0 Safari/537.36" etag="AQMStuNTB4xIaBaauqe4" version="20.1.1" type="github">
  <diagram id="wyfxoNuQdhsSUdAI6aM1" name="페이지-1">
    <mxGraphModel dx="1117" dy="669" grid="1" gridSize="10" guides="1" tooltips="1" connect="1" arrows="1" fold="1" page="1" pageScale="1" pageWidth="827" pageHeight="1169" math="0" shadow="0">
      <root>
        <mxCell id="0" />
        <mxCell id="1" parent="0" />
        <mxCell id="qrOoembMpXJaN26WOoW5-1" value="학생" style="whiteSpace=wrap;html=1;aspect=fixed;" vertex="1" parent="1">
          <mxGeometry x="190" y="340" width="60" height="60" as="geometry" />
        </mxCell>
        <mxCell id="qrOoembMpXJaN26WOoW5-2" value="임직원" style="whiteSpace=wrap;html=1;aspect=fixed;" vertex="1" parent="1">
          <mxGeometry x="290" y="530" width="60" height="60" as="geometry" />
        </mxCell>
        <mxCell id="qrOoembMpXJaN26WOoW5-3" value="교수" style="whiteSpace=wrap;html=1;aspect=fixed;" vertex="1" parent="1">
          <mxGeometry x="340" y="210" width="60" height="60" as="geometry" />
        </mxCell>
        <mxCell id="qrOoembMpXJaN26WOoW5-5" value="학과&lt;br&gt;사무실" style="whiteSpace=wrap;html=1;aspect=fixed;" vertex="1" parent="1">
          <mxGeometry x="560" y="355" width="60" height="60" as="geometry" />
        </mxCell>
        <mxCell id="qrOoembMpXJaN26WOoW5-34" value="" style="edgeStyle=orthogonalEdgeStyle;rounded=0;orthogonalLoop=1;jettySize=auto;html=1;entryX=1;entryY=0.75;entryDx=0;entryDy=0;" edge="1" parent="1" source="qrOoembMpXJaN26WOoW5-6" target="qrOoembMpXJaN26WOoW5-5">
          <mxGeometry relative="1" as="geometry" />
        </mxCell>
        <mxCell id="qrOoembMpXJaN26WOoW5-6" value="상태" style="ellipse;whiteSpace=wrap;html=1;" vertex="1" parent="1">
          <mxGeometry x="670" y="435" width="50" height="30" as="geometry" />
        </mxCell>
        <mxCell id="qrOoembMpXJaN26WOoW5-30" style="edgeStyle=orthogonalEdgeStyle;rounded=0;orthogonalLoop=1;jettySize=auto;html=1;entryX=0.25;entryY=0;entryDx=0;entryDy=0;" edge="1" parent="1" source="qrOoembMpXJaN26WOoW5-7" target="qrOoembMpXJaN26WOoW5-5">
          <mxGeometry relative="1" as="geometry" />
        </mxCell>
        <mxCell id="qrOoembMpXJaN26WOoW5-7" value="직책코드" style="ellipse;whiteSpace=wrap;html=1;fontStyle=4" vertex="1" parent="1">
          <mxGeometry x="650" y="315" width="50" height="30" as="geometry" />
        </mxCell>
        <mxCell id="qrOoembMpXJaN26WOoW5-32" value="" style="edgeStyle=orthogonalEdgeStyle;rounded=0;orthogonalLoop=1;jettySize=auto;html=1;entryX=1;entryY=0.25;entryDx=0;entryDy=0;" edge="1" parent="1" source="qrOoembMpXJaN26WOoW5-8" target="qrOoembMpXJaN26WOoW5-5">
          <mxGeometry relative="1" as="geometry" />
        </mxCell>
        <mxCell id="qrOoembMpXJaN26WOoW5-8" value="직책번호" style="ellipse;whiteSpace=wrap;html=1;fontStyle=4" vertex="1" parent="1">
          <mxGeometry x="670" y="355" width="50" height="30" as="geometry" />
        </mxCell>
        <mxCell id="qrOoembMpXJaN26WOoW5-37" style="edgeStyle=orthogonalEdgeStyle;rounded=0;orthogonalLoop=1;jettySize=auto;html=1;entryX=0.75;entryY=1;entryDx=0;entryDy=0;" edge="1" parent="1" source="qrOoembMpXJaN26WOoW5-9" target="qrOoembMpXJaN26WOoW5-5">
          <mxGeometry relative="1" as="geometry" />
        </mxCell>
        <mxCell id="qrOoembMpXJaN26WOoW5-9" value="상태사유" style="ellipse;whiteSpace=wrap;html=1;" vertex="1" parent="1">
          <mxGeometry x="670" y="475" width="50" height="30" as="geometry" />
        </mxCell>
        <mxCell id="qrOoembMpXJaN26WOoW5-40" style="edgeStyle=orthogonalEdgeStyle;rounded=0;orthogonalLoop=1;jettySize=auto;html=1;entryX=0;entryY=0.5;entryDx=0;entryDy=0;exitX=0.5;exitY=0;exitDx=0;exitDy=0;" edge="1" parent="1" source="qrOoembMpXJaN26WOoW5-11" target="qrOoembMpXJaN26WOoW5-2">
          <mxGeometry relative="1" as="geometry" />
        </mxCell>
        <mxCell id="qrOoembMpXJaN26WOoW5-11" value="직원번호" style="ellipse;whiteSpace=wrap;html=1;fontStyle=4" vertex="1" parent="1">
          <mxGeometry x="230" y="610" width="50" height="30" as="geometry" />
        </mxCell>
        <mxCell id="qrOoembMpXJaN26WOoW5-42" value="" style="edgeStyle=orthogonalEdgeStyle;rounded=0;orthogonalLoop=1;jettySize=auto;html=1;" edge="1" parent="1" source="qrOoembMpXJaN26WOoW5-12" target="qrOoembMpXJaN26WOoW5-2">
          <mxGeometry relative="1" as="geometry" />
        </mxCell>
        <mxCell id="qrOoembMpXJaN26WOoW5-12" value="이름" style="ellipse;whiteSpace=wrap;html=1;" vertex="1" parent="1">
          <mxGeometry x="295" y="635" width="50" height="30" as="geometry" />
        </mxCell>
        <mxCell id="qrOoembMpXJaN26WOoW5-43" style="edgeStyle=orthogonalEdgeStyle;rounded=0;orthogonalLoop=1;jettySize=auto;html=1;" edge="1" parent="1" source="qrOoembMpXJaN26WOoW5-13">
          <mxGeometry relative="1" as="geometry">
            <mxPoint x="350" y="560" as="targetPoint" />
            <Array as="points">
              <mxPoint x="389" y="560" />
            </Array>
          </mxGeometry>
        </mxCell>
        <mxCell id="qrOoembMpXJaN26WOoW5-13" value="상태" style="ellipse;whiteSpace=wrap;html=1;" vertex="1" parent="1">
          <mxGeometry x="363.5" y="610" width="50" height="30" as="geometry" />
        </mxCell>
        <mxCell id="qrOoembMpXJaN26WOoW5-24" style="edgeStyle=orthogonalEdgeStyle;rounded=0;orthogonalLoop=1;jettySize=auto;html=1;entryX=0.25;entryY=0;entryDx=0;entryDy=0;" edge="1" parent="1" source="qrOoembMpXJaN26WOoW5-14" target="qrOoembMpXJaN26WOoW5-1">
          <mxGeometry relative="1" as="geometry" />
        </mxCell>
        <mxCell id="qrOoembMpXJaN26WOoW5-14" value="학번" style="ellipse;whiteSpace=wrap;html=1;fontStyle=4" vertex="1" parent="1">
          <mxGeometry x="110" y="300" width="50" height="30" as="geometry" />
        </mxCell>
        <mxCell id="qrOoembMpXJaN26WOoW5-25" style="edgeStyle=orthogonalEdgeStyle;rounded=0;orthogonalLoop=1;jettySize=auto;html=1;" edge="1" parent="1" source="qrOoembMpXJaN26WOoW5-15">
          <mxGeometry relative="1" as="geometry">
            <mxPoint x="190" y="365" as="targetPoint" />
          </mxGeometry>
        </mxCell>
        <mxCell id="qrOoembMpXJaN26WOoW5-15" value="이름" style="ellipse;whiteSpace=wrap;html=1;" vertex="1" parent="1">
          <mxGeometry x="80" y="350" width="50" height="30" as="geometry" />
        </mxCell>
        <mxCell id="qrOoembMpXJaN26WOoW5-26" style="edgeStyle=orthogonalEdgeStyle;rounded=0;orthogonalLoop=1;jettySize=auto;html=1;entryX=0.5;entryY=1;entryDx=0;entryDy=0;" edge="1" parent="1" source="qrOoembMpXJaN26WOoW5-16" target="qrOoembMpXJaN26WOoW5-1">
          <mxGeometry relative="1" as="geometry">
            <Array as="points">
              <mxPoint x="220" y="420" />
            </Array>
          </mxGeometry>
        </mxCell>
        <mxCell id="qrOoembMpXJaN26WOoW5-16" value="상태" style="ellipse;whiteSpace=wrap;html=1;" vertex="1" parent="1">
          <mxGeometry x="110" y="400" width="50" height="30" as="geometry" />
        </mxCell>
        <mxCell id="qrOoembMpXJaN26WOoW5-38" style="edgeStyle=orthogonalEdgeStyle;rounded=0;orthogonalLoop=1;jettySize=auto;html=1;entryX=0.25;entryY=1;entryDx=0;entryDy=0;" edge="1" parent="1" source="qrOoembMpXJaN26WOoW5-17" target="qrOoembMpXJaN26WOoW5-5">
          <mxGeometry relative="1" as="geometry" />
        </mxCell>
        <mxCell id="qrOoembMpXJaN26WOoW5-17" value="시작기간" style="ellipse;whiteSpace=wrap;html=1;" vertex="1" parent="1">
          <mxGeometry x="670" y="515" width="50" height="30" as="geometry" />
        </mxCell>
        <mxCell id="qrOoembMpXJaN26WOoW5-39" style="edgeStyle=orthogonalEdgeStyle;rounded=0;orthogonalLoop=1;jettySize=auto;html=1;entryX=0.5;entryY=1;entryDx=0;entryDy=0;" edge="1" parent="1" source="qrOoembMpXJaN26WOoW5-18" target="qrOoembMpXJaN26WOoW5-5">
          <mxGeometry relative="1" as="geometry" />
        </mxCell>
        <mxCell id="qrOoembMpXJaN26WOoW5-18" value="종료기간" style="ellipse;whiteSpace=wrap;html=1;" vertex="1" parent="1">
          <mxGeometry x="670" y="555" width="50" height="30" as="geometry" />
        </mxCell>
        <mxCell id="qrOoembMpXJaN26WOoW5-27" style="edgeStyle=orthogonalEdgeStyle;rounded=0;orthogonalLoop=1;jettySize=auto;html=1;entryX=0;entryY=0.5;entryDx=0;entryDy=0;" edge="1" parent="1" source="qrOoembMpXJaN26WOoW5-19" target="qrOoembMpXJaN26WOoW5-3">
          <mxGeometry relative="1" as="geometry" />
        </mxCell>
        <mxCell id="qrOoembMpXJaN26WOoW5-19" value="교수번호" style="ellipse;whiteSpace=wrap;html=1;fontStyle=4" vertex="1" parent="1">
          <mxGeometry x="290" y="150" width="50" height="30" as="geometry" />
        </mxCell>
        <mxCell id="qrOoembMpXJaN26WOoW5-29" style="edgeStyle=orthogonalEdgeStyle;rounded=0;orthogonalLoop=1;jettySize=auto;html=1;entryX=0.75;entryY=0;entryDx=0;entryDy=0;" edge="1" parent="1" source="qrOoembMpXJaN26WOoW5-20" target="qrOoembMpXJaN26WOoW5-3">
          <mxGeometry relative="1" as="geometry">
            <mxPoint x="375" y="200" as="targetPoint" />
          </mxGeometry>
        </mxCell>
        <mxCell id="qrOoembMpXJaN26WOoW5-20" value="이름" style="ellipse;whiteSpace=wrap;html=1;" vertex="1" parent="1">
          <mxGeometry x="350" y="130" width="50" height="30" as="geometry" />
        </mxCell>
        <mxCell id="qrOoembMpXJaN26WOoW5-28" style="edgeStyle=orthogonalEdgeStyle;rounded=0;orthogonalLoop=1;jettySize=auto;html=1;entryX=1;entryY=0.5;entryDx=0;entryDy=0;" edge="1" parent="1" source="qrOoembMpXJaN26WOoW5-21" target="qrOoembMpXJaN26WOoW5-3">
          <mxGeometry relative="1" as="geometry">
            <Array as="points">
              <mxPoint x="440" y="240" />
            </Array>
          </mxGeometry>
        </mxCell>
        <mxCell id="qrOoembMpXJaN26WOoW5-21" value="상태" style="ellipse;whiteSpace=wrap;html=1;" vertex="1" parent="1">
          <mxGeometry x="420" y="150" width="50" height="30" as="geometry" />
        </mxCell>
        <mxCell id="qrOoembMpXJaN26WOoW5-22" value="&lt;b style=&quot;font-size: 15px;&quot;&gt;재직,재학&lt;br&gt;상태관리 ERD&lt;/b&gt;" style="text;html=1;strokeColor=none;fillColor=none;align=center;verticalAlign=middle;whiteSpace=wrap;rounded=0;fontSize=15;" vertex="1" parent="1">
          <mxGeometry x="320" y="50" width="120" height="30" as="geometry" />
        </mxCell>
        <mxCell id="qrOoembMpXJaN26WOoW5-33" value="" style="edgeStyle=orthogonalEdgeStyle;rounded=0;orthogonalLoop=1;jettySize=auto;html=1;" edge="1" parent="1" source="qrOoembMpXJaN26WOoW5-23">
          <mxGeometry relative="1" as="geometry">
            <mxPoint x="620" y="385" as="targetPoint" />
            <Array as="points">
              <mxPoint x="695" y="380" />
              <mxPoint x="620" y="380" />
            </Array>
          </mxGeometry>
        </mxCell>
        <mxCell id="qrOoembMpXJaN26WOoW5-23" value="이름" style="ellipse;whiteSpace=wrap;html=1;fontStyle=0" vertex="1" parent="1">
          <mxGeometry x="670" y="395" width="50" height="30" as="geometry" />
        </mxCell>
        <mxCell id="qrOoembMpXJaN26WOoW5-44" value="상태신청" style="rhombus;whiteSpace=wrap;html=1;" vertex="1" parent="1">
          <mxGeometry x="464" y="275" width="50" height="40" as="geometry" />
        </mxCell>
        <mxCell id="qrOoembMpXJaN26WOoW5-45" value="상태신청" style="rhombus;whiteSpace=wrap;html=1;" vertex="1" parent="1">
          <mxGeometry x="355" y="355" width="50" height="40" as="geometry" />
        </mxCell>
        <mxCell id="qrOoembMpXJaN26WOoW5-46" value="상태신청" style="rhombus;whiteSpace=wrap;html=1;" vertex="1" parent="1">
          <mxGeometry x="450" y="490" width="50" height="40" as="geometry" />
        </mxCell>
      </root>
    </mxGraphModel>
  </diagram>
</mxfile>
